<mxfile host="app.diagrams.net" modified="2022-08-31T05:55:43.407Z" agent="5.0 (Windows NT 10.0; Win64; x64) AppleWebKit/537.36 (KHTML, like Gecko) Chrome/104.0.0.0 Safari/537.36" etag="KcSXK8L77Ba6UuCT5gPJ" version="20.0.4" type="github">
  <diagram id="kM1hYxJfoeGP2_qdPI_r" name="Page-1">
    <mxGraphModel dx="761" dy="398" grid="1" gridSize="10" guides="1" tooltips="1" connect="1" arrows="1" fold="1" page="1" pageScale="1" pageWidth="827" pageHeight="1169" math="0" shadow="0">
      <root>
        <mxCell id="0" />
        <mxCell id="1" parent="0" />
        <mxCell id="9gP3g0n-2yhdAC0b8mBO-2" value="2" style="whiteSpace=wrap;html=1;aspect=fixed;" vertex="1" parent="1">
          <mxGeometry x="110" y="200" width="40" height="40" as="geometry" />
        </mxCell>
        <mxCell id="9gP3g0n-2yhdAC0b8mBO-3" value="5" style="whiteSpace=wrap;html=1;aspect=fixed;" vertex="1" parent="1">
          <mxGeometry x="150" y="200" width="40" height="40" as="geometry" />
        </mxCell>
        <mxCell id="9gP3g0n-2yhdAC0b8mBO-4" value="1" style="whiteSpace=wrap;html=1;aspect=fixed;" vertex="1" parent="1">
          <mxGeometry x="190" y="200" width="40" height="40" as="geometry" />
        </mxCell>
        <mxCell id="9gP3g0n-2yhdAC0b8mBO-5" value="6" style="whiteSpace=wrap;html=1;aspect=fixed;" vertex="1" parent="1">
          <mxGeometry x="230" y="200" width="40" height="40" as="geometry" />
        </mxCell>
        <mxCell id="9gP3g0n-2yhdAC0b8mBO-7" value="0" style="whiteSpace=wrap;html=1;aspect=fixed;" vertex="1" parent="1">
          <mxGeometry x="150" y="320" width="40" height="40" as="geometry" />
        </mxCell>
        <mxCell id="9gP3g0n-2yhdAC0b8mBO-8" value="1" style="whiteSpace=wrap;html=1;aspect=fixed;" vertex="1" parent="1">
          <mxGeometry x="110" y="320" width="40" height="40" as="geometry" />
        </mxCell>
        <mxCell id="9gP3g0n-2yhdAC0b8mBO-9" value="2" style="whiteSpace=wrap;html=1;aspect=fixed;" vertex="1" parent="1">
          <mxGeometry x="230" y="320" width="40" height="40" as="geometry" />
        </mxCell>
        <mxCell id="9gP3g0n-2yhdAC0b8mBO-12" value="nums" style="text;html=1;strokeColor=none;fillColor=none;align=center;verticalAlign=middle;whiteSpace=wrap;rounded=0;" vertex="1" parent="1">
          <mxGeometry x="20" y="205" width="60" height="30" as="geometry" />
        </mxCell>
        <mxCell id="9gP3g0n-2yhdAC0b8mBO-13" value="index" style="text;html=1;strokeColor=none;fillColor=none;align=center;verticalAlign=middle;whiteSpace=wrap;rounded=0;" vertex="1" parent="1">
          <mxGeometry x="20" y="325" width="60" height="30" as="geometry" />
        </mxCell>
        <mxCell id="9gP3g0n-2yhdAC0b8mBO-14" value="0" style="whiteSpace=wrap;html=1;aspect=fixed;" vertex="1" parent="1">
          <mxGeometry x="150" y="400" width="40" height="40" as="geometry" />
        </mxCell>
        <mxCell id="9gP3g0n-2yhdAC0b8mBO-15" value="1" style="whiteSpace=wrap;html=1;aspect=fixed;" vertex="1" parent="1">
          <mxGeometry x="110" y="400" width="40" height="40" as="geometry" />
        </mxCell>
        <mxCell id="9gP3g0n-2yhdAC0b8mBO-16" value="2" style="whiteSpace=wrap;html=1;aspect=fixed;" vertex="1" parent="1">
          <mxGeometry x="230" y="400" width="40" height="40" as="geometry" />
        </mxCell>
        <mxCell id="9gP3g0n-2yhdAC0b8mBO-17" value="3" style="whiteSpace=wrap;html=1;aspect=fixed;dashed=1;" vertex="1" parent="1">
          <mxGeometry x="190" y="400" width="40" height="40" as="geometry" />
        </mxCell>
        <mxCell id="9gP3g0n-2yhdAC0b8mBO-18" value="tmp" style="text;html=1;strokeColor=none;fillColor=none;align=center;verticalAlign=middle;whiteSpace=wrap;rounded=0;" vertex="1" parent="1">
          <mxGeometry x="20" y="405" width="60" height="30" as="geometry" />
        </mxCell>
        <mxCell id="9gP3g0n-2yhdAC0b8mBO-19" value="" style="endArrow=none;dashed=1;html=1;dashPattern=1 3;strokeWidth=2;rounded=0;" edge="1" parent="1">
          <mxGeometry width="50" height="50" relative="1" as="geometry">
            <mxPoint x="190" y="600" as="sourcePoint" />
            <mxPoint x="190" y="150" as="targetPoint" />
          </mxGeometry>
        </mxCell>
        <mxCell id="9gP3g0n-2yhdAC0b8mBO-20" value="count" style="text;html=1;strokeColor=none;fillColor=none;align=center;verticalAlign=middle;whiteSpace=wrap;rounded=0;" vertex="1" parent="1">
          <mxGeometry x="20" y="520" width="60" height="30" as="geometry" />
        </mxCell>
        <mxCell id="9gP3g0n-2yhdAC0b8mBO-21" value="1" style="whiteSpace=wrap;html=1;aspect=fixed;" vertex="1" parent="1">
          <mxGeometry x="150" y="520" width="40" height="40" as="geometry" />
        </mxCell>
        <mxCell id="9gP3g0n-2yhdAC0b8mBO-22" value="1" style="whiteSpace=wrap;html=1;aspect=fixed;" vertex="1" parent="1">
          <mxGeometry x="110" y="520" width="40" height="40" as="geometry" />
        </mxCell>
        <mxCell id="9gP3g0n-2yhdAC0b8mBO-23" value="1" style="whiteSpace=wrap;html=1;aspect=fixed;" vertex="1" parent="1">
          <mxGeometry x="190" y="520" width="40" height="40" as="geometry" />
        </mxCell>
        <mxCell id="9gP3g0n-2yhdAC0b8mBO-24" value="0" style="whiteSpace=wrap;html=1;aspect=fixed;" vertex="1" parent="1">
          <mxGeometry x="230" y="520" width="40" height="40" as="geometry" />
        </mxCell>
        <mxCell id="9gP3g0n-2yhdAC0b8mBO-27" value="i" style="text;html=1;strokeColor=none;fillColor=none;align=center;verticalAlign=middle;whiteSpace=wrap;rounded=0;" vertex="1" parent="1">
          <mxGeometry x="140" y="250" width="60" height="30" as="geometry" />
        </mxCell>
        <mxCell id="9gP3g0n-2yhdAC0b8mBO-28" value="" style="endArrow=classic;html=1;rounded=0;entryX=0.523;entryY=1.095;entryDx=0;entryDy=0;entryPerimeter=0;" edge="1" parent="1" target="9gP3g0n-2yhdAC0b8mBO-15">
          <mxGeometry width="50" height="50" relative="1" as="geometry">
            <mxPoint x="130" y="470" as="sourcePoint" />
            <mxPoint x="129.8" y="480" as="targetPoint" />
          </mxGeometry>
        </mxCell>
        <mxCell id="9gP3g0n-2yhdAC0b8mBO-30" value="" style="endArrow=classic;html=1;rounded=0;exitX=0.5;exitY=1;exitDx=0;exitDy=0;startArrow=none;" edge="1" parent="1" source="9gP3g0n-2yhdAC0b8mBO-34">
          <mxGeometry width="50" height="50" relative="1" as="geometry">
            <mxPoint x="80" y="330" as="sourcePoint" />
            <mxPoint x="130" y="320" as="targetPoint" />
          </mxGeometry>
        </mxCell>
        <mxCell id="9gP3g0n-2yhdAC0b8mBO-31" value="" style="endArrow=classic;html=1;rounded=0;entryX=0.523;entryY=1.095;entryDx=0;entryDy=0;entryPerimeter=0;" edge="1" parent="1">
          <mxGeometry width="50" height="50" relative="1" as="geometry">
            <mxPoint x="249.54000000000002" y="466.2" as="sourcePoint" />
            <mxPoint x="250.4600000000001" y="439.99999999999994" as="targetPoint" />
          </mxGeometry>
        </mxCell>
        <mxCell id="9gP3g0n-2yhdAC0b8mBO-32" value="l" style="text;html=1;strokeColor=none;fillColor=none;align=center;verticalAlign=middle;whiteSpace=wrap;rounded=0;" vertex="1" parent="1">
          <mxGeometry x="100" y="470" width="60" height="30" as="geometry" />
        </mxCell>
        <mxCell id="9gP3g0n-2yhdAC0b8mBO-33" value="r" style="text;html=1;strokeColor=none;fillColor=none;align=center;verticalAlign=middle;whiteSpace=wrap;rounded=0;" vertex="1" parent="1">
          <mxGeometry x="220" y="470" width="60" height="30" as="geometry" />
        </mxCell>
        <mxCell id="9gP3g0n-2yhdAC0b8mBO-34" value="3" style="whiteSpace=wrap;html=1;aspect=fixed;fillColor=#fff2cc;strokeColor=#d6b656;" vertex="1" parent="1">
          <mxGeometry x="110" y="290" width="40" height="40" as="geometry" />
        </mxCell>
        <mxCell id="9gP3g0n-2yhdAC0b8mBO-35" value="" style="endArrow=none;html=1;rounded=0;exitX=0.5;exitY=1;exitDx=0;exitDy=0;" edge="1" parent="1">
          <mxGeometry width="50" height="50" relative="1" as="geometry">
            <mxPoint x="170" y="280" as="sourcePoint" />
            <mxPoint x="170" y="290" as="targetPoint" />
          </mxGeometry>
        </mxCell>
        <mxCell id="9gP3g0n-2yhdAC0b8mBO-36" value="1" style="whiteSpace=wrap;html=1;aspect=fixed;fillColor=#fff2cc;strokeColor=#d6b656;" vertex="1" parent="1">
          <mxGeometry x="150" y="290" width="40" height="40" as="geometry" />
        </mxCell>
        <mxCell id="9gP3g0n-2yhdAC0b8mBO-37" value="3" style="whiteSpace=wrap;html=1;aspect=fixed;" vertex="1" parent="1">
          <mxGeometry x="190" y="320" width="40" height="40" as="geometry" />
        </mxCell>
      </root>
    </mxGraphModel>
  </diagram>
</mxfile>
